<svg width="16" height="19" viewBox="0 0 16 19" fill="none" xmlns="http://www.w3.org/2000/svg">
<path d="M14.1182 6.70998C13.4112 6.70998 12.8392 7.28198 12.8392 7.98798V12.518C12.8392 13.227 13.4112 13.798 14.1182 13.798C14.8252 13.798 15.3972 13.227 15.3972 12.518V7.98798C15.3972 7.28198 14.8252 6.70998 14.1182 6.70998ZM1.43018 6.70998C0.723184 6.70998 0.151184 7.28198 0.151184 7.98798V12.518C0.151184 13.227 0.723184 13.798 1.43018 13.798C2.13718 13.798 2.70918 13.227 2.70918 12.518V7.98798C2.71018 7.28198 2.13718 6.70998 1.43018 6.70998ZM10.3192 2.90098L11.0872 1.51298C11.1832 1.34598 11.1202 1.13598 10.9542 1.04298C10.7862 0.948977 10.5752 1.00998 10.4832 1.17798L9.69419 2.59798C9.10619 2.36298 8.45819 2.22998 7.77419 2.22998C7.09019 2.22998 6.44218 2.36198 5.85418 2.59698L5.06519 1.17898C4.97519 1.01098 4.76418 0.949977 4.59418 1.04398C4.42818 1.13698 4.36719 1.34698 4.46119 1.51398L5.22918 2.90198C3.84618 3.68998 2.92218 5.09898 2.92218 6.70998C2.92218 6.72098 2.92218 6.73098 2.92418 6.74398C2.92218 6.74998 2.92218 6.75698 2.92218 6.76298V6.76398H12.6252V6.76298C12.6252 6.75698 12.6252 6.74998 12.6252 6.74398C12.6252 6.73098 12.6252 6.72098 12.6252 6.70998C12.6262 5.09898 11.7022 3.69098 10.3192 2.90098ZM5.53419 4.86898C5.34519 4.86898 5.19019 4.71298 5.19019 4.52298C5.19019 4.33298 5.34419 4.17698 5.53419 4.17698C5.72519 4.17698 5.88218 4.33198 5.88218 4.52298C5.88118 4.71298 5.72519 4.86898 5.53419 4.86898ZM10.0142 4.86898C9.82319 4.86898 9.66819 4.71298 9.66819 4.52298C9.66819 4.33298 9.82219 4.17698 10.0142 4.17698C10.2032 4.17698 10.3582 4.33198 10.3582 4.52298C10.3582 4.71298 10.2042 4.86898 10.0142 4.86898ZM2.92218 14.12C2.92218 14.766 3.44718 15.291 4.09618 15.291H4.68218V17.692C4.68218 18.399 5.25619 18.97 5.96119 18.97C6.66619 18.97 7.24018 18.399 7.24018 17.692V15.291H8.30618V17.692C8.30618 18.399 8.87819 18.97 9.58319 18.97C10.2922 18.97 10.8642 18.399 10.8642 17.692V15.291H11.4502C12.0982 15.291 12.6242 14.767 12.6242 14.12V7.02798H2.92218V14.12Z" fill="white"/>
</svg>
