<svg width="17" height="20" viewBox="0 0 17 20" fill="none" xmlns="http://www.w3.org/2000/svg">
<path d="M16.4392 14.811C16.1522 15.475 15.8122 16.086 15.4182 16.648C14.8812 17.415 14.4402 17.945 14.1022 18.24C13.5772 18.722 13.0132 18.97 12.4102 18.984C11.9782 18.984 11.4562 18.861 10.8482 18.611C10.2382 18.362 9.67819 18.24 9.16519 18.24C8.62819 18.24 8.05219 18.362 7.43519 18.611C6.81919 18.861 6.32119 18.992 5.94019 19.004C5.36319 19.029 4.78619 18.775 4.21119 18.24C3.84419 17.92 3.38519 17.37 2.83419 16.592C2.24419 15.763 1.75919 14.798 1.37919 13.701C0.972189 12.514 0.768188 11.366 0.768188 10.254C0.768188 8.98102 1.04319 7.88202 1.59419 6.96202C2.02819 6.22202 2.60419 5.63902 3.32419 5.21102C4.04519 4.78202 4.82519 4.56302 5.66419 4.54902C6.12419 4.54902 6.72719 4.69102 7.47419 4.97102C8.22119 5.25102 8.70119 5.39302 8.91019 5.39302C9.06819 5.39302 9.59919 5.22602 10.5032 4.89502C11.3562 4.58802 12.0762 4.46102 12.6662 4.51102C14.2662 4.64002 15.4672 5.27002 16.2662 6.40602C14.8362 7.27302 14.1292 8.48602 14.1432 10.043C14.1552 11.256 14.5962 12.265 15.4602 13.066C15.8522 13.438 16.2892 13.725 16.7752 13.929C16.6692 14.236 16.5572 14.529 16.4392 14.811ZM12.7722 0.380024C12.7722 1.33002 12.4242 2.21802 11.7332 3.03902C10.8972 4.01502 9.88719 4.58002 8.79219 4.49102C8.77819 4.37702 8.77119 4.25702 8.77119 4.13102C8.77119 3.21802 9.16719 2.24202 9.87419 1.44302C10.2262 1.03902 10.6742 0.702023 11.2172 0.434023C11.7592 0.170023 12.2712 0.0240234 12.7532 -0.000976562C12.7662 0.127023 12.7722 0.254024 12.7722 0.380024Z" fill="white"/>
</svg>
