<svg width="178" height="32" viewBox="0 0 178 32" fill="none" xmlns="http://www.w3.org/2000/svg">
<path fill-rule="evenodd" clip-rule="evenodd" d="M13.2526 18.5345L15.6771 17.277C15.8924 17.0583 15.8924 17.0583 16.1079 17.277L18.5324 18.5345C18.9632 18.7533 19.3943 18.5345 19.1787 18.097L18.5324 15.418C18.3705 14.9808 18.5324 14.9808 18.8014 14.762L20.8487 12.903C21.2258 12.6845 21.0103 12.3018 20.6331 12.3018L17.7778 12.083C17.5086 12.083 17.347 11.8643 17.347 11.6455L16.3235 8.91202C16.1079 8.52927 15.6771 8.52927 15.4615 8.91202L14.438 11.6455C14.438 11.8643 14.2762 12.083 14.0606 12.083L11.2053 12.3018C10.7745 12.3018 10.559 12.6845 10.9363 12.903L13.2526 14.762C13.4142 14.9808 13.6298 14.9808 13.4142 15.418L12.6063 18.097C12.3907 18.5345 12.8218 18.7533 13.2526 18.5345ZM8.45795 6.06876C10.0742 5.63151 11.9596 5.41276 13.4142 5.03001C14.2225 4.81126 14.6536 4.81126 14.6536 4.15526V2.07775C14.6536 0.16425 13.7916 0 12.7678 0H11.5288C4.74074 1.64025 0 5.19401 0 15.09V15.4728C0 24.1113 5.76451 31.0001 13.6298 31.0001C14.6536 31.0001 14.6536 29.9613 14.6536 29.1413V26.1888C14.6536 25.1501 14.0069 24.1113 12.9831 23.8926C9.48148 23.0178 6.78804 19.6825 6.78804 15.6915V15.254V7.92777C6.78804 7.32627 6.57249 6.28752 8.45795 6.06876ZM23.5423 6.06876C25.4278 6.28752 25.2125 7.32627 25.2125 7.92777V15.254V15.6915C25.2125 19.6825 22.5186 23.0178 19.0169 23.8926C17.9934 24.1113 17.347 25.1501 17.347 26.1888V29.1413C17.347 29.9613 17.347 31.0001 18.3705 31.0001C26.236 31.0001 32 24.1113 32 15.4728V15.09C32 5.19401 27.2593 1.64025 20.4718 0H19.2324C18.2089 0 17.347 0.16425 17.347 2.07775V4.15526C17.347 4.81126 17.7778 4.81126 18.5861 5.03001C20.0407 5.41276 21.9261 5.63151 23.5423 6.06876Z" fill="white"/>
<path fill-rule="evenodd" clip-rule="evenodd" d="M58.1645 4.69326V22.9491C58.1645 25.6836 57.3439 27.8404 55.7028 29.458C54.0989 31.0757 51.9729 31.8845 49.362 31.8845C47.0122 31.8845 45.0353 31.2297 43.4315 29.9202C41.8276 28.6107 40.8579 26.9161 40.5968 24.7978H44.0656C44.4759 27.1472 46.49 28.6878 49.362 28.6878C52.607 28.6878 54.733 26.4924 54.733 22.9491V20.2916C53.0546 21.6781 51.0777 22.3714 48.7652 22.3714C46.3408 22.3714 44.2148 21.4856 42.5363 19.7139C40.8206 17.9037 40 15.7854 40 13.3205C40 10.663 40.8206 8.42916 42.499 6.65749C44.1775 4.88583 46.2662 4 48.7652 4C51.115 4 53.0919 4.69326 54.733 6.1183V4.69326H58.1645ZM49.2501 19.3288C51.5999 19.3288 53.4275 18.3274 54.733 16.3246V10.0468C53.4275 8.08253 51.5999 7.08115 49.2501 7.08115C47.5716 7.08115 46.1543 7.69739 45.0726 8.89134C43.991 10.0853 43.4315 11.5488 43.4315 13.3205C43.4315 14.8996 43.991 16.2861 45.1099 17.5186C46.2289 18.7125 47.6089 19.3288 49.2501 19.3288ZM80.7888 4.69326V22.6795H77.3573V21.1004C75.7535 22.4484 73.814 23.1417 71.5387 23.1417C69.077 23.1417 66.951 22.2173 65.2353 20.4072C63.4822 18.5585 62.6616 16.3246 62.6616 13.7056C62.6616 11.0481 63.5195 8.8143 65.2353 7.00412C66.9883 5.15543 69.077 4.23108 71.5387 4.23108C73.814 4.23108 75.7535 4.92434 77.3573 6.27235V4.69326H80.7888ZM72.0236 20.0605C74.2989 20.0605 76.0892 19.0977 77.3573 17.1719V10.2008C76.0892 8.2751 74.2989 7.31224 72.0236 7.31224C70.3452 7.31224 68.9651 7.92847 67.8089 9.19945C66.6526 10.4704 66.0931 11.9725 66.0931 13.7056C66.0931 15.4388 66.6526 16.9023 67.8089 18.1733C68.9651 19.4443 70.3452 20.0605 72.0236 20.0605ZM107.665 4.11555C109.791 4.11555 111.544 4.88583 112.924 6.42641C114.304 7.96699 115.013 10.0083 115.013 12.5117V22.6795H111.619V12.7043C111.619 9.27648 109.94 7.31224 106.994 7.31224C105.054 7.31224 103.45 8.31362 102.22 10.2779C102.369 10.9711 102.443 11.7029 102.443 12.5117V22.6795H99.0119V12.7043C99.0119 9.27648 97.3335 7.31224 94.3869 7.31224C92.6338 7.31224 91.1046 8.2751 89.8364 10.2008V22.6795H86.405V4.69326H89.8364V6.31086C91.2165 4.84732 92.9322 4.11555 95.0583 4.11555C97.5946 4.11555 99.5341 5.11692 100.914 7.11967C102.779 5.11692 105.017 4.11555 107.665 4.11555ZM136.966 13.5131C136.966 14.2063 136.929 14.707 136.891 15.0536L136.817 15.0151V15.0536H122.718C123.203 18.0193 125.329 20.1375 128.574 20.1375C130.625 20.1375 132.043 19.4058 132.826 17.9037H136.518C135.511 21.1004 132.378 23.1417 128.462 23.1417C125.776 23.1417 123.576 22.2558 121.86 20.4457C120.182 18.6355 119.324 16.4017 119.324 13.7056C119.324 10.9711 120.182 8.73727 121.86 6.92709C123.576 5.11692 125.776 4.23108 128.462 4.23108C130.924 4.23108 132.938 5.11692 134.542 6.85007C136.145 8.58322 136.929 10.7785 136.966 13.5131ZM128.313 7.27372C125.217 7.27372 123.166 9.35351 122.718 12.3962H133.497C133.162 9.27648 131.185 7.27372 128.313 7.27372ZM155.115 6.65749L144.857 19.7139H155.115V22.6795H139.785V20.9464L150.191 7.65887H140.12V4.69326H155.115V6.65749ZM178 4.65474L166.214 32H162.596L166.288 23.4498L157.486 4.65474H161.178L168.041 19.3288L174.382 4.65474H178Z" fill="white"/>
</svg>
